Coordinates
version=1
nRows=14
nColumns=42
inDegrees=yes

Units are S.I. units (second, meters, Newtons, ...)
If the header above contains a line with 'inDegrees', this indicates whether rotational values are in degrees (yes) or radians (no).

endheader
time	pelvis_tilt	pelvis_list	pelvis_rotation	pelvis_tx	pelvis_ty	pelvis_tz	hip_flexion_r	hip_adduction_r	hip_rotation_r	knee_angle_r	knee_adduction_r	knee_angle_r_beta	ankle_angle_r	subtalar_angle_r	mtp_angle_r	hip_flexion_l	hip_adduction_l	hip_rotation_l	knee_angle_l	knee_adduction_l	knee_angle_l_beta	ankle_angle_l	subtalar_angle_l	mtp_angle_l	lumbar_extension	lumbar_bending	lumbar_rotation	arm_flex_r	arm_add_r	arm_rot_r	elbow_flex_r	pro_sup_r	wrist_flex_r	wrist_dev_r	arm_flex_l	arm_add_l	arm_rot_l	elbow_flex_l	pro_sup_l	wrist_flex_l	wrist_dev_l
      1.65000000	     14.02029559	      3.15657336	      6.72432126	     -0.40720607	      0.87900629	     -0.03296933	     13.80320424	     -3.38435175	    -20.72245099	     35.71063996	     -3.70006012	      0.62326825	     12.92164016	     -3.71683516	     -7.57701867	    -21.06296314	     -2.63442907	    -21.21706297	     43.62042329	    -10.63415898	      0.76132001	      8.62176046	     24.81028213	     -7.57701867	    -34.87783628	     -0.48918746	     -5.37226859	     -4.63969203	     -5.93520757	    -42.54892876	     23.91015722	     90.00000001	      0.00000000	      0.00000000	     10.73767333	     -7.09867191	    -29.38301584	     38.06724431	     90.00000001	      0.00000000	      0.00000000
      1.66000000	     14.21386273	      2.93364603	      6.51499962	     -0.39770679	      0.88016881	     -0.03138388	     12.96852832	     -2.93163361	    -21.10249922	     35.73548910	     -3.85378851	      0.62370194	     13.76868914	     -3.29725953	     -7.57586461	    -20.38732246	     -2.82727772	    -20.88637849	     45.67795662	    -10.97523169	      0.79723074	      7.41759182	     22.33601906	     -7.57586461	    -35.05534626	     -0.30179070	     -5.05990509	     -4.22744597	     -6.17401945	    -42.17638506	     24.22641666	     90.00000001	      0.00000000	      0.00000000	     10.26022435	     -6.87576852	    -29.68037505	     37.86343387	     90.00000001	      0.00000000	      0.00000000
      1.67000000	     14.43602607	      2.96172951	      6.32054416	     -0.38840261	      0.88157590	     -0.02984774	     12.15050663	     -2.71851368	    -22.06070951	     35.80611448	     -4.53524493	      0.62493459	     14.69267733	     -1.63072476	     -7.57112706	    -19.86068320	     -2.51253137	    -19.15105791	     47.51068880	    -10.58680414	      0.82921795	      6.27731486	     17.53583113	     -7.57112706	    -35.31535316	     -0.37007024	     -4.89356460	     -3.92290287	     -6.40157237	    -40.87119386	     24.63352059	     90.00000001	      0.00000000	      0.00000000	      9.89244604	     -6.66462349	    -30.26694874	     37.57207131	     90.00000001	      0.00000000	      0.00000000
      1.68000000	     14.55560903	      2.72632296	      6.08643497	     -0.37930337	      0.88263805	     -0.02817629	     11.38470688	     -2.22043576	    -22.58038782	     35.69352529	     -4.84241011	      0.62296954	     15.62297817	     -0.95546917	     -7.56911002	    -18.92450118	     -2.63892858	    -18.85300487	     49.56538703	    -10.89964309	      0.86507920	      5.75362006	     15.03527129	     -7.56911002	    -35.45406151	     -0.20262492	     -4.55788261	     -3.43832326	     -6.61396660	    -40.29665614	     25.06872734	     90.00000001	      0.00000000	      0.00000000	      9.43856860	     -6.47552047	    -30.42420208	     37.39270345	     90.00000001	      0.00000000	      0.00000000
      1.69000000	     14.83820739	      2.80553804	      5.94035717	     -0.37041130	      0.88417963	     -0.02675089	     10.42144833	     -2.15904242	    -23.66034617	     35.61978993	     -5.37812327	      0.62168261	     16.55973417	      0.82773128	     -7.56416798	    -18.23193453	     -2.31751718	    -17.40107497	     51.41842852	    -10.52760829	      0.89742087	      5.10599491	     10.58105378	     -7.56416798	    -35.82420325	     -0.30139296	     -4.43870504	     -3.07018371	     -6.82994361	    -38.84929891	     25.58533999	     90.00000001	      0.00000000	      0.00000000	      9.13248779	     -6.33308572	    -30.84342523	     37.13665178	     90.00000001	      0.00000000	      0.00000000
      1.70000000	     15.05051953	      2.70832910	      5.79113501	     -0.36166515	      0.88553430	     -0.02523192	      9.48210454	     -1.84186229	    -24.30217339	     35.38379956	     -5.69574253	      0.61756380	     17.27862276	      1.77863082	     -7.56060021	    -17.29410093	     -2.27471184	    -16.57440641	     53.31746717	    -10.39837000	      0.93056535	      5.02347072	      7.15459278	     -7.56060021	    -36.10232756	     -0.24541673	     -4.21290542	     -2.60355388	     -7.03618625	    -37.81783932	     26.10143131	     90.00000001	      0.00000000	      0.00000000	      8.79648633	     -6.19057080	    -31.04306171	     36.88568185	     90.00000001	      0.00000000	      0.00000000
      1.71000000	     15.28558419	      2.65139255	      5.65517745	     -0.35311354	      0.88699066	     -0.02376414	      8.47981332	     -1.58368272	    -24.73529547	     35.09770852	     -5.84651943	      0.61257057	     17.94089718	      2.52265848	     -7.55739073	    -16.32408472	     -2.17665544	    -15.71834654	     55.08650461	    -10.19368634	      0.96144088	      5.11948715	      3.68298417	     -7.55739073	    -36.43096821	     -0.22503386	     -4.01421080	     -2.11293574	     -7.24038573	    -36.69475335	     26.66557077	     90.00000001	      0.00000000	      0.00000000	      8.49075103	     -6.06137535	    -31.21411391	     36.64898493	     90.00000001	      0.00000000	      0.00000000
      1.72000000	     15.57725093	      2.62607679	      5.49515270	     -0.34461432	      0.88852173	     -0.02240882	      7.35898234	     -1.39771381	    -24.75604450	     34.79433794	     -5.68299405	      0.60727576	     18.56695768	      2.71532438	     -7.55631520	    -15.35817515	     -2.02121821	    -15.62630359	     56.58594006	    -10.56901945	      0.98761096	      6.11444330	      1.76521724	     -7.55631520	    -36.81473383	     -0.23191815	     -3.81404764	     -1.48792668	     -7.41856890	    -36.20347994	     27.15186655	     90.00000001	      0.00000000	      0.00000000	      8.16884648	     -5.95643516	    -31.23086173	     36.44528635	     90.00000001	      0.00000000	      0.00000000
      1.73000000	     15.85704715	      2.61814270	      5.44474701	     -0.33655379	      0.89018169	     -0.02099305	      6.27937422	     -1.14204630	    -24.91147077	     34.41535172	     -5.73412983	      0.60066120	     18.97866562	      3.20337080	     -7.55288259	    -14.32834167	     -1.88108997	    -13.96774142	     58.17685295	     -9.62543377	      1.01537763	      5.74359844	     -2.94371068	     -7.55288259	    -37.24343806	     -0.24555902	     -3.66294445	     -1.06707705	     -7.65307477	    -34.22085875	     27.87778825	     90.00000001	      0.00000000	      0.00000000	      7.99108557	     -5.84207027	    -31.45908457	     36.19916725	     90.00000001	      0.00000000	      0.00000000
      1.74000000	     16.14302384	      2.62577193	      5.30969156	     -0.32838058	      0.89177683	     -0.01966632	      5.12988237	     -0.97907829	    -24.70205563	     34.03081954	     -5.44716421	      0.59394985	     19.47636417	      3.30176628	     -7.55190432	    -13.25992428	     -1.68586433	    -13.74918142	     59.38555427	     -9.80879895	      1.03647345	      6.92737440	     -4.57743579	     -7.55190432	    -37.64025470	     -0.29526844	     -3.48154572	     -0.37004120	     -7.81329159	    -33.69490817	     28.40739912	     90.00000001	      0.00000000	      0.00000000	      7.74187081	     -5.77213087	    -31.43703556	     35.98865883	     90.00000001	      0.00000000	      0.00000000
      1.75000000	     16.46875594	      2.75186991	      5.08363071	     -0.32045447	      0.89342112	     -0.01804786	      4.03345408	     -0.89382769	    -24.48344411	     33.74017397	     -5.35651892	      0.58887713	     19.71544616	      3.36322221	     -7.55119181	    -12.19533084	     -1.43583965	    -13.44860241	     60.48295933	     -9.71956912	      1.05562678	      7.67558136	     -5.70499426	     -7.55119181	    -38.12262440	     -0.54926702	     -3.22486945	      0.33761106	     -7.88654397	    -33.17972277	     28.90630860	     90.00000001	      0.00000000	      0.00000000	      7.58146118	     -5.72867551	    -31.40645340	     35.84622356	     90.00000001	      0.00000000	      0.00000000
      1.76000000	     16.68244873	      2.60076874	      5.20263426	     -0.31298413	      0.89504546	     -0.01703001	      2.88395133	     -0.46418157	    -24.11318261	     33.04985364	     -4.98523220	      0.57682876	     19.88117458	      2.97762857	     -7.54808820	    -10.94673084	     -1.40877034	    -11.14023565	     61.62740592	     -8.21076906	      1.07560114	      7.16836480	    -10.59495436	     -7.54808820	    -38.50538888	     -0.33251481	     -3.14368002	      0.71118258	     -8.29557987	    -30.29930571	     29.87937771	     90.00000001	      0.00000000	      0.00000000	      7.46633032	     -5.61710546	    -31.55948873	     35.58355608	     90.00000001	      0.00000000	      0.00000000
      1.77000000	     16.89942423	      2.70829678	      5.02988735	     -0.30530655	      0.89650377	     -0.01571414	      1.85816070	     -0.39748638	    -23.82549155	     32.64631559	     -4.78450748	      0.56978570	     20.23384084	      3.04764782	     -7.54732544	     -9.71699506	     -1.06887053	    -10.73021558	     62.31283436	     -8.11033386	      1.08756413	      8.10941498	    -11.35820092	     -7.54732544	    -38.86732862	     -0.53225244	     -2.94711170	      1.48136807	     -8.40923831	    -29.83183158	     30.41457032	     90.00000001	      0.00000000	      0.00000000	      7.30997512	     -5.56420409	    -31.50170839	     35.41256348	     90.00000001	      0.00000000	      0.00000000
      1.78000000	     17.12766327	      2.81807409	      4.78144897	     -0.29783736	      0.89789686	     -0.01422376	      0.90453691	     -0.32878731	    -23.62214521	     32.33945956	     -4.70843722	      0.56443005	     20.41677636	      3.11737604	     -7.54669025	     -8.46549692	     -0.76030694	    -10.22105962	     62.89218074	     -7.76833179	      1.09767563	      8.65568999	    -11.77932712	     -7.54669025	    -39.25256420	     -0.80194842	     -2.64827364	      2.25008987	     -8.55101218	    -29.32234133	     30.95123035	     90.00000001	      0.00000000	      0.00000000	      7.20233776	     -5.54808075	    -31.44502813	     35.31336901	     90.00000001	      0.00000000	      0.00000000
